G04*
G04 #@! TF.GenerationSoftware,Altium Limited,Altium Designer,23.0.1 (38)*
G04*
G04 Layer_Color=16711935*
%FSLAX44Y44*%
%MOMM*%
G71*
G04*
G04 #@! TF.SameCoordinates,2D5BAB57-EA05-42CD-B47F-AA1B42220792*
G04*
G04*
G04 #@! TF.FilePolarity,Negative*
G04*
G01*
G75*
%ADD15R,1.5500X1.5500*%
%ADD16C,1.5500*%
%ADD17C,1.5032*%
%ADD18R,1.5032X1.5032*%
%ADD19C,2.1132*%
%ADD20R,2.1132X2.1132*%
%ADD21C,1.2332*%
%ADD22C,1.8032*%
%ADD23R,1.8032X1.8032*%
%ADD24R,1.8032X1.8032*%
%ADD25R,1.4532X1.4532*%
%ADD26C,1.4532*%
%ADD27C,1.2500*%
%ADD28R,1.2500X1.2500*%
%ADD29C,1.5406*%
%ADD30R,1.5406X1.5406*%
D15*
X837530Y854240D02*
D03*
D16*
X912530D02*
D03*
D17*
X783590Y687070D02*
D03*
X646430Y692150D02*
D03*
D18*
X783590Y636270D02*
D03*
X646430Y641350D02*
D03*
D19*
X1159510Y752040D02*
D03*
Y726540D02*
D03*
D20*
Y701040D02*
D03*
D21*
X908050Y688140D02*
D03*
Y639340D02*
D03*
D22*
X684530Y858520D02*
D03*
X749300Y856780D02*
D03*
X622300Y857250D02*
D03*
X553720D02*
D03*
X1254760Y742950D02*
D03*
D23*
X684530Y833120D02*
D03*
X749300Y831380D02*
D03*
X622300Y831850D02*
D03*
X553720D02*
D03*
D24*
X1229360Y742950D02*
D03*
D25*
X989330Y919010D02*
D03*
D26*
Y893610D02*
D03*
Y868210D02*
D03*
Y842810D02*
D03*
Y817410D02*
D03*
Y792010D02*
D03*
Y766610D02*
D03*
Y741210D02*
D03*
Y715810D02*
D03*
Y690410D02*
D03*
Y665010D02*
D03*
Y639610D02*
D03*
Y614210D02*
D03*
Y588810D02*
D03*
X1068070D02*
D03*
Y614210D02*
D03*
Y639610D02*
D03*
Y665010D02*
D03*
Y690410D02*
D03*
Y715810D02*
D03*
Y741210D02*
D03*
Y766610D02*
D03*
Y792010D02*
D03*
Y817410D02*
D03*
Y842810D02*
D03*
Y868210D02*
D03*
Y893610D02*
D03*
Y919010D02*
D03*
D27*
X1120140Y903440D02*
D03*
D28*
Y803440D02*
D03*
D29*
X767969Y749300D02*
D03*
D30*
X717931D02*
D03*
M02*
