M48
;Layer_Color=9474304
;FILE_FORMAT=4:4
METRIC,LZ
;TYPE=PLATED
T1F00S00C0.6300
T2F00S00C0.7500
T3F00S00C0.8000
T4F00S00C0.8300
T5F00S00C0.9906
T6F00S00C1.0000
T7F00S00C1.1000
T8F00S00C1.2700
%
T01
X0090805Y0063934
Y0068814
T02
X0112014Y0080344
Y0090344
T03
X0064643Y0064135
Y0069215
X0078359Y0068707
Y0063627
T04
X0098933Y0058881
Y0061421
Y0063961
Y0066501
Y0069041
Y0071581
Y0074121
Y0076661
Y0079201
X0106807
Y0076661
Y0074121
Y0071581
Y0069041
Y0066501
Y0063961
Y0061421
Y0058881
Y0081741
Y0084281
Y0086821
Y0089361
Y0091901
X0098933
Y0089361
Y0086821
Y0084281
Y0081741
T05
X00717931Y007493
X00767969
T06
X0083753Y0085424
X0091253
T07
X0122936Y0074295
X0125476
X007493Y0083138
Y0085678
X0068453Y0085852
Y0083312
X006223Y0083185
Y0085725
X0055372
Y0083185
T08
X0115951Y0070104
Y0072654
Y0075204
M30
