%TF.GenerationSoftware,Altium Limited,Altium Designer,23.0.1 (38)*%
G04 Layer_Color=16711935*
%FSLAX45Y45*%
%MOMM*%
%TF.SameCoordinates,EEB749D1-378B-4D6E-888E-37D0F6B4ACBA*%
%TF.FilePolarity,Negative*%
%TF.FileFunction,Soldermask,Bot*%
%TF.Part,Single*%
G01*
G75*
%TA.AperFunction,ComponentPad*%
%ADD13R,1.55000X1.55000*%
%ADD14C,1.55000*%
%ADD24C,1.25000*%
%ADD25R,1.25000X1.25000*%
%ADD26C,1.54060*%
%ADD27R,1.54060X1.54060*%
%ADD32C,1.50320*%
%ADD33R,1.50320X1.50320*%
%ADD34C,2.11320*%
%ADD35R,2.11320X2.11320*%
%ADD36C,1.23320*%
%ADD37C,1.80320*%
%ADD38R,1.80320X1.80320*%
%ADD39R,1.80320X1.80320*%
%ADD40R,1.45320X1.45320*%
%ADD41C,1.45320*%
D13*
X8375300Y8542400D02*
D03*
D14*
X9125300D02*
D03*
D24*
X11201400Y9034400D02*
D03*
D25*
Y8034400D02*
D03*
D26*
X7679690Y7493000D02*
D03*
D27*
X7179310D02*
D03*
D32*
X7835900Y6870700D02*
D03*
X6464300Y6921500D02*
D03*
D33*
X7835900Y6362700D02*
D03*
X6464300Y6413500D02*
D03*
D34*
X11595100Y7520400D02*
D03*
Y7265400D02*
D03*
D35*
Y7010400D02*
D03*
D36*
X9080500Y6881400D02*
D03*
Y6393400D02*
D03*
D37*
X6845300Y8585200D02*
D03*
X7493000Y8567800D02*
D03*
X6223000Y8572500D02*
D03*
X5537200D02*
D03*
X12547600Y7429500D02*
D03*
D38*
X6845300Y8331200D02*
D03*
X7493000Y8313800D02*
D03*
X6223000Y8318500D02*
D03*
X5537200D02*
D03*
D39*
X12293600Y7429500D02*
D03*
D40*
X9893300Y9190100D02*
D03*
D41*
Y8936100D02*
D03*
Y8682100D02*
D03*
Y8428100D02*
D03*
Y8174100D02*
D03*
Y7920100D02*
D03*
Y7666100D02*
D03*
Y7412100D02*
D03*
Y7158100D02*
D03*
Y6904100D02*
D03*
Y6650100D02*
D03*
Y6396100D02*
D03*
Y6142100D02*
D03*
Y5888100D02*
D03*
X10680700D02*
D03*
Y6142100D02*
D03*
Y6396100D02*
D03*
Y6650100D02*
D03*
Y6904100D02*
D03*
Y7158100D02*
D03*
Y7412100D02*
D03*
Y7666100D02*
D03*
Y7920100D02*
D03*
Y8174100D02*
D03*
Y8428100D02*
D03*
Y8682100D02*
D03*
Y8936100D02*
D03*
Y9190100D02*
D03*
%TF.MD5,492671cd5ba32fbabf2c1b175d23cc70*%
M02*
