%TF.GenerationSoftware,Altium Limited,Altium Designer,23.0.1 (38)*%
G04 Layer_Physical_Order=1*
G04 Layer_Color=255*
%FSLAX45Y45*%
%MOMM*%
%TF.SameCoordinates,EEB749D1-378B-4D6E-888E-37D0F6B4ACBA*%
%TF.FilePolarity,Positive*%
%TF.FileFunction,Copper,L1,Top,Signal*%
%TF.Part,Single*%
G01*
G75*
%TA.AperFunction,Conductor*%
%ADD10C,0.38100*%
%ADD11C,0.25400*%
%TA.AperFunction,NonConductor*%
%ADD12C,0.25400*%
%TA.AperFunction,ComponentPad*%
%ADD13R,1.55000X1.55000*%
%ADD14C,1.55000*%
%ADD15C,1.30000*%
%ADD16R,1.30000X1.30000*%
%ADD17C,1.91000*%
%ADD18R,1.91000X1.91000*%
%ADD19C,1.03000*%
%ADD20C,1.60000*%
%ADD21R,1.60000X1.60000*%
%ADD22R,1.60000X1.60000*%
%ADD23R,1.25000X1.25000*%
%ADD24C,1.25000*%
%ADD25R,1.25000X1.25000*%
%ADD26C,1.54060*%
%ADD27R,1.54060X1.54060*%
D10*
X11056000Y7290800D02*
X11645900D01*
X9382600Y6393400D02*
X9893300Y6904100D01*
X9080500Y6393400D02*
X9382600D01*
X9080500Y6881400D02*
X9616600D01*
X9893300Y7158100D01*
X7975699D02*
X9893300D01*
X7739099Y6921500D02*
X7975699Y7158100D01*
X6464300Y6921500D02*
X7739099D01*
X10159666Y7035800D02*
X11645900D01*
X7679690Y7493000D02*
X7912720Y7259970D01*
X9935496D01*
X10159666Y7035800D01*
X6832600Y8318500D02*
X6845300Y8331200D01*
X6223000Y8318500D02*
X6832600D01*
X5537200D02*
X6223000D01*
X7679690Y7493000D02*
Y7496810D01*
X6845300Y8331200D02*
X7679690Y7496810D01*
X10680700Y7666100D02*
X11056000Y7290800D01*
X9893300Y7412100D02*
X10147300Y7666100D01*
X10680700D01*
X8375300Y8542400D02*
X8763000D01*
X9893300Y7412100D01*
X8349900Y8567800D02*
X8375300Y8542400D01*
X7493000Y8567800D02*
X8349900D01*
X6854000Y8576500D02*
X7484300D01*
X6845300Y8585200D02*
X6854000Y8576500D01*
X7484300D02*
X7493000Y8567800D01*
X6838950Y8578850D02*
X6845300Y8585200D01*
X6223000Y8572500D02*
X6229350Y8578850D01*
X6838950D01*
D11*
X5537200Y8572500D02*
X6223000D01*
D12*
X5486367Y9791642D02*
X5460975Y9817034D01*
X5410192D01*
X5384800Y9791642D01*
Y9766251D01*
X5410192Y9740859D01*
X5460975D01*
X5486367Y9715467D01*
Y9690075D01*
X5460975Y9664683D01*
X5410192D01*
X5384800Y9690075D01*
X5537151Y9664683D02*
X5587934D01*
X5562543D01*
Y9817034D01*
X5537151D01*
X5689501Y9664683D02*
X5740285D01*
X5765677Y9690075D01*
Y9740859D01*
X5740285Y9766251D01*
X5689501D01*
X5664110Y9740859D01*
Y9690075D01*
X5689501Y9664683D01*
X5841852Y9791642D02*
Y9766251D01*
X5816460D01*
X5867244D01*
X5841852D01*
Y9690075D01*
X5867244Y9664683D01*
X5943419Y9817034D02*
X5994203D01*
X5968811D01*
Y9664683D01*
X5943419D01*
X5994203D01*
X6095770Y9791642D02*
Y9766251D01*
X6070378D01*
X6121161D01*
X6095770D01*
Y9690075D01*
X6121161Y9664683D01*
X6349688Y9740859D02*
X6451255D01*
X6654389Y9817034D02*
Y9664683D01*
X6755956D01*
X6832132Y9766251D02*
X6882915D01*
X6908307Y9740859D01*
Y9664683D01*
X6832132D01*
X6806740Y9690075D01*
X6832132Y9715467D01*
X6908307D01*
X6959090Y9766251D02*
Y9690075D01*
X6984482Y9664683D01*
X7060658D01*
Y9766251D01*
X7111441D02*
Y9664683D01*
Y9715467D01*
X7136833Y9740859D01*
X7162225Y9766251D01*
X7187617D01*
X7339967Y9664683D02*
X7289184D01*
X7263792Y9690075D01*
Y9740859D01*
X7289184Y9766251D01*
X7339967D01*
X7365359Y9740859D01*
Y9715467D01*
X7263792D01*
X7416143Y9664683D02*
Y9766251D01*
X7492318D01*
X7517710Y9740859D01*
Y9664683D01*
X7720844Y9817034D02*
Y9664683D01*
X7797019D01*
X7822411Y9690075D01*
Y9791642D01*
X7797019Y9817034D01*
X7720844D01*
X7873195Y9766251D02*
Y9690075D01*
X7898587Y9664683D01*
X7974762D01*
Y9766251D01*
X8050937Y9664683D02*
Y9791642D01*
Y9740859D01*
X8025546D01*
X8076329D01*
X8050937D01*
Y9791642D01*
X8076329Y9817034D01*
X8177896Y9664683D02*
Y9791642D01*
Y9740859D01*
X8152504D01*
X8203288D01*
X8177896D01*
Y9791642D01*
X8203288Y9817034D01*
X8279463Y9664683D02*
X8330247D01*
X8304855D01*
Y9766251D01*
X8279463D01*
X8431814Y9791642D02*
Y9766251D01*
X8406422D01*
X8457206D01*
X8431814D01*
Y9690075D01*
X8457206Y9664683D01*
X8558773Y9791642D02*
Y9766251D01*
X8533381D01*
X8584164D01*
X8558773D01*
Y9690075D01*
X8584164Y9664683D01*
X8685732Y9639292D02*
X8711123Y9664683D01*
Y9690075D01*
X8685732D01*
Y9664683D01*
X8711123D01*
X8685732Y9639292D01*
X8660340Y9613900D01*
X8965041Y9664683D02*
Y9766251D01*
X9015825Y9817034D01*
X9066608Y9766251D01*
Y9664683D01*
Y9740859D01*
X8965041D01*
X9218959Y9817034D02*
Y9664683D01*
X9142784D01*
X9117392Y9690075D01*
Y9740859D01*
X9142784Y9766251D01*
X9218959D01*
X9295135D02*
X9345918D01*
X9371310Y9740859D01*
Y9664683D01*
X9295135D01*
X9269743Y9690075D01*
X9295135Y9715467D01*
X9371310D01*
X9422093Y9664683D02*
Y9766251D01*
X9447485D01*
X9472877Y9740859D01*
Y9664683D01*
Y9740859D01*
X9498269Y9766251D01*
X9523661Y9740859D01*
Y9664683D01*
X9726795Y9817034D02*
Y9664683D01*
X9802970D01*
X9828362Y9690075D01*
Y9715467D01*
X9802970Y9740859D01*
X9726795D01*
X9802970D01*
X9828362Y9766251D01*
Y9791642D01*
X9802970Y9817034D01*
X9726795D01*
X9879146Y9766251D02*
Y9664683D01*
Y9715467D01*
X9904537Y9740859D01*
X9929929Y9766251D01*
X9955321D01*
X10056888Y9664683D02*
X10107672D01*
X10133064Y9690075D01*
Y9740859D01*
X10107672Y9766251D01*
X10056888D01*
X10031496Y9740859D01*
Y9690075D01*
X10056888Y9664683D01*
X10183847Y9766251D02*
Y9690075D01*
X10209239Y9664683D01*
X10234631Y9690075D01*
X10260022Y9664683D01*
X10285414Y9690075D01*
Y9766251D01*
X10412373Y9664683D02*
X10361590D01*
X10336198Y9690075D01*
Y9740859D01*
X10361590Y9766251D01*
X10412373D01*
X10437765Y9740859D01*
Y9715467D01*
X10336198D01*
X10488548Y9766251D02*
Y9664683D01*
Y9715467D01*
X10513940Y9740859D01*
X10539332Y9766251D01*
X10564724D01*
X10666291Y9639292D02*
X10691683Y9664683D01*
Y9690075D01*
X10666291D01*
Y9664683D01*
X10691683D01*
X10666291Y9639292D01*
X10640899Y9613900D01*
X10945601Y9817034D02*
Y9664683D01*
Y9715467D01*
X11047168Y9817034D01*
X10970993Y9740859D01*
X11047168Y9664683D01*
X11123343Y9766251D02*
X11174127D01*
X11199519Y9740859D01*
Y9664683D01*
X11123343D01*
X11097951Y9690075D01*
X11123343Y9715467D01*
X11199519D01*
X11250302Y9664683D02*
X11301086D01*
X11275694D01*
Y9817034D01*
X11250302D01*
X11453436Y9664683D02*
X11402653D01*
X11377261Y9690075D01*
Y9740859D01*
X11402653Y9766251D01*
X11453436D01*
X11478828Y9740859D01*
Y9715467D01*
X11377261D01*
X11529612Y9817034D02*
Y9664683D01*
X11605787D01*
X11631179Y9690075D01*
Y9715467D01*
Y9740859D01*
X11605787Y9766251D01*
X11529612D01*
X11935880Y9817034D02*
X11834313D01*
Y9740859D01*
X11885097D01*
X11834313D01*
Y9664683D01*
X12012056D02*
X12062839D01*
X12088231Y9690075D01*
Y9740859D01*
X12062839Y9766251D01*
X12012056D01*
X11986664Y9740859D01*
Y9690075D01*
X12012056Y9664683D01*
X12139015D02*
X12215190D01*
X12240582Y9690075D01*
X12215190Y9715467D01*
X12164406D01*
X12139015Y9740859D01*
X12164406Y9766251D01*
X12240582D01*
X12316757Y9791642D02*
Y9766251D01*
X12291365D01*
X12342149D01*
X12316757D01*
Y9690075D01*
X12342149Y9664683D01*
X12494500D02*
X12443716D01*
X12418324Y9690075D01*
Y9740859D01*
X12443716Y9766251D01*
X12494500D01*
X12519891Y9740859D01*
Y9715467D01*
X12418324D01*
X12570675Y9766251D02*
Y9664683D01*
Y9715467D01*
X12596067Y9740859D01*
X12621458Y9766251D01*
X12646850D01*
D13*
X8375300Y8542400D02*
D03*
D14*
X9125300D02*
D03*
D15*
X7835900Y6870700D02*
D03*
X6464300Y6921500D02*
D03*
D16*
X7835900Y6362700D02*
D03*
X6464300Y6413500D02*
D03*
D17*
X11595100Y7520400D02*
D03*
Y7265400D02*
D03*
D18*
Y7010400D02*
D03*
D19*
X9080500Y6881400D02*
D03*
Y6393400D02*
D03*
D20*
X6845300Y8585200D02*
D03*
X7493000Y8567800D02*
D03*
X6223000Y8572500D02*
D03*
X5537200D02*
D03*
X12547600Y7429500D02*
D03*
D21*
X6845300Y8331200D02*
D03*
X7493000Y8313800D02*
D03*
X6223000Y8318500D02*
D03*
X5537200D02*
D03*
D22*
X12293600Y7429500D02*
D03*
D23*
X9893300Y9190100D02*
D03*
D24*
Y8936100D02*
D03*
Y8682100D02*
D03*
Y8428100D02*
D03*
Y8174100D02*
D03*
Y7920100D02*
D03*
Y7666100D02*
D03*
Y7412100D02*
D03*
Y7158100D02*
D03*
Y6904100D02*
D03*
Y6650100D02*
D03*
Y6396100D02*
D03*
Y6142100D02*
D03*
Y5888100D02*
D03*
X10680700D02*
D03*
Y6142100D02*
D03*
Y6396100D02*
D03*
Y6650100D02*
D03*
Y6904100D02*
D03*
Y7158100D02*
D03*
Y7412100D02*
D03*
Y7666100D02*
D03*
Y7920100D02*
D03*
Y8174100D02*
D03*
Y8428100D02*
D03*
Y8682100D02*
D03*
Y8936100D02*
D03*
Y9190100D02*
D03*
X11201400Y9034400D02*
D03*
D25*
Y8034400D02*
D03*
D26*
X7679690Y7493000D02*
D03*
D27*
X7179310D02*
D03*
%TF.MD5,b81b0e63661bb369f39009655dbc366b*%
M02*
