%TF.GenerationSoftware,Altium Limited,Altium Designer,23.0.1 (38)*%
G04 Layer_Color=0*
%FSLAX45Y45*%
%MOMM*%
%TF.SameCoordinates,EEB749D1-378B-4D6E-888E-37D0F6B4ACBA*%
%TF.FilePolarity,Positive*%
%TF.FileFunction,Plated,1,2,PTH,Drill*%
%TF.Part,Single*%
G01*
G75*
%TA.AperFunction,ComponentDrill*%
%ADD43C,1.00000*%
%ADD44C,0.80000*%
%ADD45C,1.27000*%
%ADD46C,0.63000*%
%ADD47C,1.10000*%
%ADD48C,1.10000*%
%ADD49C,0.83000*%
%ADD50C,0.75000*%
%ADD51C,0.99060*%
D43*
X8375300Y8542400D02*
D03*
X9125300D02*
D03*
D44*
X7835900Y6870700D02*
D03*
Y6362700D02*
D03*
X6464300Y6413500D02*
D03*
Y6921500D02*
D03*
D45*
X11595100Y7520400D02*
D03*
Y7265400D02*
D03*
Y7010400D02*
D03*
D46*
X9080500Y6881400D02*
D03*
Y6393400D02*
D03*
D47*
X6845300Y8585200D02*
D03*
Y8331200D02*
D03*
X7493000Y8567800D02*
D03*
Y8313800D02*
D03*
X6223000Y8572500D02*
D03*
Y8318500D02*
D03*
X5537200Y8572500D02*
D03*
Y8318500D02*
D03*
D48*
X12293600Y7429500D02*
D03*
X12547600D02*
D03*
D49*
X9893300Y9190100D02*
D03*
Y8936100D02*
D03*
Y8682100D02*
D03*
Y8428100D02*
D03*
Y8174100D02*
D03*
Y7920100D02*
D03*
Y7666100D02*
D03*
Y7412100D02*
D03*
Y7158100D02*
D03*
Y6904100D02*
D03*
Y6650100D02*
D03*
Y6396100D02*
D03*
Y6142100D02*
D03*
Y5888100D02*
D03*
X10680700D02*
D03*
Y6142100D02*
D03*
Y6396100D02*
D03*
Y6650100D02*
D03*
Y6904100D02*
D03*
Y7158100D02*
D03*
Y7412100D02*
D03*
Y7666100D02*
D03*
Y7920100D02*
D03*
Y8174100D02*
D03*
Y8428100D02*
D03*
Y8682100D02*
D03*
Y8936100D02*
D03*
Y9190100D02*
D03*
D50*
X11201400Y9034400D02*
D03*
Y8034400D02*
D03*
D51*
X7679690Y7493000D02*
D03*
X7179310D02*
D03*
%TF.MD5,e5b7d9640a8ef591a590b97cb1919009*%
M02*
